<svg width="1307" height="1241" viewBox="0 0 1307 1241" fill="none" xmlns="http://www.w3.org/2000/svg">
<rect x="39.9272" width="1240.52" height="1240.35" rx="50" fill="#FDB4E9"/>
<path d="M1205.8 365.242C1194.38 348.536 1179.75 334.216 1162.73 323.1C1145.72 311.984 1126.65 304.29 1106.63 300.457C1086.6 296.624 1066.01 296.727 1046.02 300.76C1026.04 304.794 1007.06 312.679 990.154 323.965C973.252 335.251 958.765 349.717 947.519 366.537C936.274 383.357 928.49 402.202 924.612 421.996C920.735 441.79 920.839 462.145 924.92 481.898C929 501.652 936.977 520.418 948.395 537.125L1077.1 451.184L1205.8 365.242Z" fill="#FF595E"/>
<path d="M688.463 873.465C673.075 886.698 660.474 902.798 651.381 920.845C642.288 938.892 636.879 958.532 635.465 978.645C634.051 998.758 636.658 1018.95 643.138 1038.07C649.618 1057.18 659.844 1074.85 673.231 1090.06C686.619 1105.27 702.907 1117.73 721.164 1126.72C739.422 1135.7 759.292 1141.05 779.639 1142.45C799.987 1143.85 820.414 1141.27 839.754 1134.86C859.094 1128.46 876.968 1118.35 892.356 1105.12L790.409 989.291L688.463 873.465Z" fill="#6A4C93"/>
<path d="M1147.64 670.09C1149.27 668.022 1152.61 668.876 1153 671.464L1191.96 925.268C1192.22 926.956 1191 928.518 1189.28 928.692L929.811 954.95C927.171 955.217 925.502 952.226 927.134 950.153L1147.64 670.09Z" fill="#3A86FF"/>
<path d="M817.893 68.7186C819.574 66.6866 822.894 67.6297 823.22 70.232L853.496 312.219C853.7 313.852 852.527 315.344 850.875 315.551L593.625 347.849C590.921 348.188 589.192 345.091 590.919 343.003L817.893 68.7186Z" fill="#FB5607"/>
<path d="M206.945 446.449C204.894 448.226 201.696 446.607 201.951 443.921L225.081 200.344C225.231 198.765 226.605 197.58 228.208 197.647L474.313 208.008C477.033 208.123 478.226 211.46 476.179 213.233L206.945 446.449Z" fill="#FFBE0B"/>
<path d="M161.109 619.273C158.731 617.975 159.183 614.454 161.816 613.764L413.601 547.777C415.211 547.355 416.854 548.305 417.271 549.899L479.424 787.111C480.09 789.65 477.362 791.76 475.047 790.497L161.109 619.273Z" fill="#FF006E"/>
<path d="M828.627 756.417C847.591 720.271 851.252 678.159 838.805 639.344C826.357 600.53 798.82 568.193 762.252 549.448C725.684 530.702 683.081 527.083 643.813 539.387C604.546 551.692 571.832 578.911 552.868 615.057L690.747 685.737L828.627 756.417Z" fill="#8D0818"/>
<path d="M306.609 1148.34C340.178 1124.74 362.888 1088.93 369.743 1048.78C376.598 1008.63 367.036 967.429 343.162 934.247C319.287 901.066 283.056 878.618 242.437 871.842C201.818 865.066 160.14 874.517 126.572 898.116L216.59 1023.23L306.609 1148.34Z" fill="#8AC926"/>
</svg>
