<svg width="229" height="45" viewBox="0 0 229 45" fill="none" xmlns="http://www.w3.org/2000/svg">
<path d="M66.75 44.5C60.8489 44.5 55.1896 42.1558 51.0169 37.9831C46.8442 33.8104 44.5 28.1511 44.5 22.25C44.5 16.3489 46.8442 10.6896 51.0169 6.51688C55.1896 2.34419 60.8489 8.91037e-07 66.75 0L66.75 22.25V44.5Z" fill="#FB8500"/>
<path d="M22.25 0C28.1511 5.15888e-07 33.8104 2.34419 37.9831 6.51687C42.1558 10.6896 44.5 16.3489 44.5 22.25C44.5 28.1511 42.1558 33.8104 37.9831 37.9831C33.8104 42.1558 28.1511 44.5 22.25 44.5L22.25 22.25L22.25 0Z" fill="#8409E4"/>
<path d="M99.5532 22.481H105.945L102.8 12.5688L99.5532 22.481ZM99.8779 6.80957H105.825L114.746 32H109.038L107.415 26.8218H98.1348L96.3916 32H90.8887L99.8779 6.80957ZM117.515 6.89502H122.3V20.4644L128.367 13.4575H134.399L127.888 20.584L134.656 32H128.777L124.316 24.0361L122.3 26.1382V32H117.515V6.89502ZM141.902 13.3721V24.6001C141.902 25.6597 142.027 26.4572 142.278 26.9927C142.722 27.9383 143.594 28.4111 144.893 28.4111C146.556 28.4111 147.695 27.7389 148.311 26.3945C148.63 25.6654 148.789 24.7026 148.789 23.5063V13.3721H153.728V32H148.994V29.3682C148.949 29.4251 148.835 29.596 148.652 29.8809C148.47 30.1657 148.254 30.4163 148.003 30.6328C147.24 31.3164 146.499 31.7835 145.781 32.0342C145.075 32.2848 144.243 32.4102 143.286 32.4102C140.529 32.4102 138.672 31.4189 137.715 29.4365C137.179 28.3428 136.912 26.7306 136.912 24.6001V13.3721H141.902ZM163.538 11.1504H158.667V6.65576H163.538V11.1504ZM156.326 35.5718C156.599 35.5946 156.793 35.606 156.907 35.606C157.021 35.6174 157.123 35.623 157.214 35.623C157.693 35.623 158.052 35.5034 158.291 35.2642C158.542 35.0363 158.667 34.5863 158.667 33.9141V13.4575H163.538V33.9995C163.538 35.8794 163.167 37.2694 162.427 38.1694C161.686 39.0695 160.234 39.5195 158.069 39.5195C157.921 39.5195 157.699 39.5138 157.402 39.5024C157.118 39.491 156.759 39.4797 156.326 39.4683V35.5718ZM173.193 11.1504H168.254V6.65576H173.193V11.1504ZM168.254 13.3721H173.193V32H168.254V13.3721Z" fill="black"/>
</svg>
